<?xml version="1.0" standalone="no"?>
<!DOCTYPE svg PUBLIC "-//W3C//DTD SVG 20010904//EN"
 "http://www.w3.org/TR/2001/REC-SVG-20010904/DTD/svg10.dtd">
<svg version="1.0" xmlns="http://www.w3.org/2000/svg"
 width="512.000000pt" height="512.000000pt" viewBox="0 0 512.000000 512.000000"
 preserveAspectRatio="xMidYMid meet">
<metadata>
Created by potrace 1.16, written by Peter Selinger 2001-2019
</metadata>
<g transform="translate(0.000000,512.000000) scale(0.100000,-0.100000)"
fill="#4098F7" stroke="none">
<path d="M1182 4350 c-18 -11 -37 -32 -42 -46 -6 -16 -10 -409 -10 -1051 0
-948 1 -1027 17 -1054 35 -59 31 -59 600 -59 496 0 519 1 550 20 67 40 63 -27
63 1095 0 921 -2 1020 -16 1051 -31 65 -17 64 -601 64 -510 0 -529 -1 -561
-20z"/>
<path d="M2818 4352 c-57 -35 -58 -41 -58 -509 0 -406 1 -430 20 -460 36 -59
22 -58 560 -61 272 -2 515 0 539 3 32 5 54 16 78 40 l33 33 0 441 c0 376 -2
446 -15 471 -31 61 -23 60 -602 60 -479 -1 -531 -2 -555 -18z"/>
<path d="M2812 2904 c-54 -38 -52 11 -52 -1096 0 -995 1 -1024 20 -1055 36
-59 22 -58 560 -61 272 -2 515 0 539 3 32 5 54 16 78 40 l33 33 0 1042 0 1042
-34 34 -34 34 -544 0 c-476 0 -546 -2 -566 -16z"/>
<path d="M1182 1720 c-18 -11 -37 -32 -42 -46 -6 -15 -10 -204 -10 -466 l0
-440 33 -33 c24 -24 46 -35 78 -40 24 -3 267 -5 539 -3 538 3 524 2 560 61 19
30 20 54 20 460 0 376 -2 433 -16 463 -31 65 -17 64 -601 64 -510 0 -529 -1
-561 -20z"/>
</g>
</svg>
