<?xml version="1.0" standalone="no"?>
<!DOCTYPE svg PUBLIC "-//W3C//DTD SVG 20010904//EN"
 "http://www.w3.org/TR/2001/REC-SVG-20010904/DTD/svg10.dtd">
<svg version="1.0" xmlns="http://www.w3.org/2000/svg"
 width="512.000000pt" height="512.000000pt" viewBox="0 0 512.000000 512.000000"
 preserveAspectRatio="xMidYMid meet">
<metadata>
Created by potrace 1.16, written by Peter Selinger 2001-2019
</metadata>
<g transform="translate(0.000000,512.000000) scale(0.100000,-0.100000)"
fill="#4098F7" stroke="none">
<path d="M2390 4983 c-73 -7 -236 -46 -319 -75 -300 -105 -571 -315 -745 -576
-405 -608 -312 -1413 221 -1912 199 -186 439 -310 720 -372 143 -32 443 -32
590 0 741 160 1244 830 1183 1576 -28 343 -166 652 -402 901 -236 250 -555
413 -890 455 -77 9 -279 11 -358 3z m305 -838 c39 -8 108 -33 155 -56 68 -34
102 -59 171 -128 133 -134 189 -269 189 -456 0 -187 -56 -322 -190 -456 -102
-103 -204 -159 -340 -185 -280 -55 -573 86 -698 337 -55 110 -72 181 -72 302
0 190 55 325 189 458 69 69 103 94 171 128 139 68 279 87 425 56z"/>
<path d="M610 1934 c-244 -299 -450 -554 -457 -567 -28 -51 -5 -125 47 -152
24 -13 85 -15 375 -15 l345 0 -6 -183 c-19 -603 -21 -782 -9 -813 27 -67 108
-95 167 -56 21 12 1172 1486 1211 1549 4 6 -28 17 -86 28 -421 80 -815 326
-1070 670 -32 44 -62 81 -66 82 -3 1 -206 -243 -451 -543z"/>
<path d="M4005 2414 c-250 -341 -650 -599 -1062 -685 -54 -11 -99 -21 -100
-23 -1 -1 264 -349 590 -774 601 -783 617 -802 680 -802 38 0 91 41 103 80 10
34 8 251 -10 807 l-6 183 345 0 c290 0 351 2 375 15 52 27 75 101 47 152 -15
28 -900 1112 -908 1112 -3 1 -27 -29 -54 -65z"/>
</g>
</svg>
